<?xml version="1.0" standalone="no"?>
<svg xmlns="http://www.w3.org/2000/svg" viewBox="0 0 362 76" width="362" height="76"><g fill="#f29b18" color="#f29b18" transform="translate(158.651 0) scale(0.9166667) "><svg width="48.0" height="48.0" x="0.0" y="0.0" viewBox="0 0 48 48"><path fill="currentColor" fill-rule="nonzero" d="M47.02 19.92c.24 1.34.38 2.72.37 4.13 0 .55-.04 1.08-.08 1.62-5 5.07-11.94 8.22-19.6 8.22h-7.87c-5.32 0-10.03 2.66-12.88 6.72-.94-.96-1.81-2.01-2.58-3.12 3.61-4.59 9.19-7.54 15.47-7.54h7.87c7.98 0 15.02-3.97 19.3-10.03zm-27.17 6.1c-6.96 0-13.2 3.03-17.53 7.82-.6-1.32-1.08-2.7-1.44-4.14 4.95-4.71 11.62-7.62 18.97-7.62h7.87c7.31 0 13.46-5.03 15.22-11.8 1 1.39 1.87 2.88 2.55 4.47-3.16 6.66-9.92 11.27-17.77 11.27h-7.87zm0-11.81l7.87-.02c4.34 0 7.87-3.53 7.87-7.87V3.61c1.41.82 2.73 1.78 3.93 2.86-.08 6.45-5.34 11.67-11.8 11.67h-7.87c-7.43 0-14.24 2.6-19.63 6.91-.01-.33-.05-.66-.05-1 0-1.4.15-2.75.38-4.08 5.56-3.63 12.18-5.76 19.3-5.76zm0-3.94c-6.35 0-12.33 1.55-17.65 4.24C5.87 6.23 14.15.44 23.79.44c2.76 0 5.4.5 7.87 1.37v4.52c0 2.17-1.77 3.94-3.94 3.94h-7.87zm7.88 27.55c6.83 0 13.14-2.21 18.32-5.93-3.24 9.18-11.96 15.77-22.25 15.77-5.16 0-9.92-1.68-13.81-4.49 2.11-3.22 5.74-5.35 9.87-5.35h7.87z"></path></svg></g><path fill="#01427c" fill-rule="nonzero" d="M0 18.28L0 16.80L1.27 16.63L7.23 1.22L9.21 1.22L15.07 16.63L16.32 16.80L16.32 18.28L11.43 18.28L11.43 16.80L12.71 16.58L11.59 13.44L4.76 13.44L3.60 16.58L4.89 16.80L4.89 18.28L0 18.28ZM8.17 4.18L5.47 11.51L10.89 11.51L8.24 4.18L8.17 4.18ZM26.71 18.28L26.52 16.77Q25.90 17.64 25.00 18.08Q24.11 18.53 22.92 18.53L22.92 18.53Q20.60 18.53 19.29 16.85Q17.99 15.16 17.99 12.42L17.99 12.42L17.99 12.18Q17.99 9.12 19.29 7.24Q20.60 5.37 22.95 5.37L22.95 5.37Q24.07 5.37 24.93 5.78Q25.79 6.20 26.40 6.98L26.40 6.98L26.40 1.82L24.49 1.49L24.49 0L26.40 0L28.71 0L28.71 16.48L30.62 16.80L30.62 18.28L26.71 18.28ZM20.30 12.18L20.30 12.42Q20.30 14.33 21.08 15.49Q21.87 16.65 23.51 16.65L23.51 16.65Q24.54 16.65 25.24 16.18Q25.95 15.71 26.40 14.86L26.40 14.86L26.40 8.98Q25.96 8.18 25.24 7.71Q24.53 7.24 23.53 7.24L23.53 7.24Q21.88 7.24 21.09 8.61Q20.30 9.98 20.30 12.18L20.30 12.18ZM36.73 5.60L36.73 7.09L35.20 7.32L37.82 14.54L38.03 15.46L38.10 15.46L38.32 14.54L40.85 7.32L39.32 7.09L39.32 5.60L44.21 5.60L44.21 7.09L43.17 7.27L38.92 18.28L37.17 18.28L32.87 7.27L31.83 7.09L31.83 5.60L36.73 5.60ZM51.41 18.53L51.41 18.53Q48.76 18.53 47.20 16.76Q45.63 15 45.63 12.19L45.63 12.19L45.63 11.67Q45.63 8.96 47.24 7.17Q48.86 5.37 51.06 5.37L51.06 5.37Q53.61 5.37 54.93 6.91Q56.25 8.46 56.25 11.04L56.25 11.04L56.25 12.48L48.02 12.48L47.99 12.54Q48.02 14.37 48.91 15.54Q49.80 16.72 51.41 16.72L51.41 16.72Q52.58 16.72 53.47 16.39Q54.35 16.05 55.00 15.47L55.00 15.47L55.90 16.97Q55.22 17.63 54.10 18.08Q52.98 18.53 51.41 18.53ZM51.06 7.18L51.06 7.18Q49.90 7.18 49.08 8.16Q48.26 9.14 48.07 10.62L48.07 10.62L48.09 10.68L53.94 10.68L53.94 10.37Q53.94 9.01 53.21 8.10Q52.49 7.18 51.06 7.18ZM58.18 18.28L58.18 16.80L60.09 16.48L60.09 7.42L58.18 7.09L58.18 5.60L62.16 5.60L62.32 7.49Q62.95 6.48 63.91 5.92Q64.86 5.37 66.08 5.37L66.08 5.37Q68.13 5.37 69.26 6.57Q70.38 7.77 70.38 10.28L70.38 10.28L70.38 16.48L72.29 16.80L72.29 18.28L66.16 18.28L66.16 16.80L68.07 16.48L68.07 10.32Q68.07 8.65 67.41 7.95Q66.75 7.24 65.39 7.24L65.39 7.24Q64.39 7.24 63.63 7.72Q62.86 8.20 62.40 9.04L62.40 9.04L62.40 16.48L64.31 16.80L64.31 18.28L58.18 18.28ZM75.69 2.54L78 2.54L78 5.60L80.40 5.60L80.40 7.31L78 7.31L78 15.01Q78 15.90 78.37 16.27Q78.74 16.63 79.35 16.63L79.35 16.63Q79.65 16.63 80.03 16.58Q80.41 16.52 80.67 16.46L80.67 16.46L80.99 18.05Q80.66 18.26 80.03 18.39Q79.39 18.53 78.76 18.53L78.76 18.53Q77.36 18.53 76.52 17.68Q75.69 16.83 75.69 15.01L75.69 15.01L75.69 7.31L73.69 7.31L73.69 5.60L75.69 5.60L75.69 2.54ZM91.98 18.28L91.83 16.41Q91.23 17.43 90.29 17.98Q89.34 18.53 88.11 18.53L88.11 18.53Q86.05 18.53 84.89 17.20Q83.73 15.88 83.73 13.08L83.73 13.08L83.73 7.42L82.28 7.09L82.28 5.60L83.73 5.60L86.04 5.60L86.04 13.10Q86.04 15.13 86.64 15.89Q87.23 16.65 88.50 16.65L88.50 16.65Q89.73 16.65 90.53 16.15Q91.34 15.66 91.75 14.74L91.75 14.74L91.75 7.42L90.05 7.09L90.05 5.60L91.75 5.60L94.05 5.60L94.05 16.48L95.51 16.80L95.51 18.28L91.98 18.28ZM99.25 7.42L97.34 7.09L97.34 5.60L101.31 5.60L101.53 7.44Q102.07 6.47 102.86 5.92Q103.65 5.37 104.67 5.37L104.67 5.37Q104.94 5.37 105.23 5.41Q105.52 5.45 105.67 5.50L105.67 5.50L105.36 7.64L104.05 7.57Q103.14 7.57 102.52 8.00Q101.89 8.43 101.55 9.20L101.55 9.20L101.55 16.48L103.46 16.80L103.46 18.28L97.34 18.28L97.34 16.80L99.25 16.48L99.25 7.42ZM112.83 18.53L112.83 18.53Q110.18 18.53 108.62 16.76Q107.05 15 107.05 12.19L107.05 12.19L107.05 11.67Q107.05 8.96 108.66 7.17Q110.27 5.37 112.48 5.37L112.48 5.37Q115.03 5.37 116.35 6.91Q117.67 8.46 117.67 11.04L117.67 11.04L117.67 12.48L109.44 12.48L109.41 12.54Q109.44 14.37 110.33 15.54Q111.22 16.72 112.83 16.72L112.83 16.72Q114 16.72 114.88 16.39Q115.77 16.05 116.41 15.47L116.41 15.47L117.32 16.97Q116.64 17.63 115.52 18.08Q114.40 18.53 112.83 18.53ZM112.48 7.18L112.48 7.18Q111.32 7.18 110.50 8.16Q109.68 9.14 109.49 10.62L109.49 10.62L109.51 10.68L115.36 10.68L115.36 10.37Q115.36 9.01 114.63 8.10Q113.91 7.18 112.48 7.18ZM129.53 6.79L129.64 9.59L127.91 9.59L127.54 8.06Q127.11 7.66 126.47 7.42Q125.84 7.18 125.03 7.18L125.03 7.18Q123.80 7.18 123.20 7.72Q122.60 8.26 122.60 9.02L122.60 9.02Q122.60 9.77 123.13 10.21Q123.66 10.64 125.27 10.98L125.27 10.98Q127.68 11.50 128.85 12.38Q130.02 13.27 130.02 14.75L130.02 14.75Q130.02 16.44 128.65 17.48Q127.29 18.53 125.09 18.53L125.09 18.53Q123.64 18.53 122.50 18.19Q121.35 17.86 120.45 17.23L120.45 17.23L120.43 14.33L122.17 14.33L122.60 16.03Q123 16.39 123.69 16.56Q124.37 16.72 125.09 16.72L125.09 16.72Q126.32 16.72 127.01 16.22Q127.71 15.73 127.71 14.92L127.71 14.92Q127.71 14.16 127.13 13.66Q126.55 13.17 124.93 12.81L124.93 12.81Q122.63 12.30 121.45 11.44Q120.28 10.57 120.28 9.09L120.28 9.09Q120.28 7.55 121.60 6.46Q122.92 5.37 125.03 5.37L125.03 5.37Q126.47 5.37 127.62 5.74Q128.77 6.12 129.53 6.79L129.53 6.79ZM137.53 1.22L151.71 1.22L151.71 4.99L149.74 4.99L149.57 3.04L145.78 3.04L145.78 16.48L147.69 16.80L147.69 18.28L141.56 18.28L141.56 16.80L143.47 16.48L143.47 3.04L139.68 3.04L139.51 4.99L137.53 4.99L137.53 1.22ZM154.22 7.42L152.31 7.09L152.31 5.60L156.28 5.60L156.50 7.44Q157.04 6.47 157.83 5.92Q158.63 5.37 159.64 5.37L159.64 5.37Q159.91 5.37 160.20 5.41Q160.49 5.45 160.64 5.50L160.64 5.50L160.34 7.64L159.02 7.57Q158.11 7.57 157.49 8.00Q156.87 8.43 156.53 9.20L156.53 9.20L156.53 16.48L158.44 16.80L158.44 18.28L152.31 18.28L152.31 16.80L154.22 16.48L154.22 7.42ZM173.53 18.28L170.51 18.28Q170.40 17.77 170.34 17.36Q170.29 16.95 170.26 16.54L170.26 16.54Q169.59 17.39 168.59 17.96Q167.59 18.53 166.45 18.53L166.45 18.53Q164.47 18.53 163.44 17.56Q162.41 16.59 162.41 14.84L162.41 14.84Q162.41 13.03 163.87 12.05Q165.33 11.07 167.87 11.07L167.87 11.07L170.25 11.07L170.25 9.60Q170.25 8.48 169.55 7.83Q168.84 7.18 167.59 7.18L167.59 7.18Q166.72 7.18 166.06 7.41Q165.40 7.63 164.99 8.02L164.99 8.02L164.74 9.35L162.96 9.35L162.96 6.89Q163.83 6.20 165.06 5.78Q166.29 5.37 167.73 5.37L167.73 5.37Q169.89 5.37 171.22 6.47Q172.56 7.57 172.56 9.62L172.56 9.62L172.56 15.73Q172.56 15.97 172.56 16.21Q172.57 16.44 172.59 16.68L172.59 16.68L173.53 16.80L173.53 18.28ZM166.79 16.59L166.79 16.59Q167.94 16.59 168.89 16.04Q169.84 15.49 170.25 14.72L170.25 14.72L170.25 12.63L167.79 12.63Q166.37 12.63 165.54 13.29Q164.72 13.95 164.72 14.88L164.72 14.88Q164.72 15.71 165.23 16.15Q165.75 16.59 166.79 16.59ZM179.63 5.60L179.63 7.09L178.10 7.32L180.71 14.54L180.93 15.46L181.00 15.46L181.22 14.54L183.75 7.32L182.21 7.09L182.21 5.60L187.11 5.60L187.11 7.09L186.07 7.27L181.82 18.28L180.07 18.28L175.77 7.27L174.73 7.09L174.73 5.60L179.63 5.60ZM194.31 18.53L194.31 18.53Q191.66 18.53 190.10 16.76Q188.53 15 188.53 12.19L188.53 12.19L188.53 11.67Q188.53 8.96 190.14 7.17Q191.75 5.37 193.96 5.37L193.96 5.37Q196.51 5.37 197.83 6.91Q199.15 8.46 199.15 11.04L199.15 11.04L199.15 12.48L190.92 12.48L190.89 12.54Q190.92 14.37 191.81 15.54Q192.70 16.72 194.31 16.72L194.31 16.72Q195.48 16.72 196.37 16.39Q197.25 16.05 197.89 15.47L197.89 15.47L198.80 16.97Q198.12 17.63 197.00 18.08Q195.88 18.53 194.31 18.53ZM193.96 7.18L193.96 7.18Q192.80 7.18 191.98 8.16Q191.16 9.14 190.97 10.62L190.97 10.62L190.99 10.68L196.84 10.68L196.84 10.37Q196.84 9.01 196.11 8.10Q195.39 7.18 193.96 7.18ZM203.02 1.82L201.11 1.49L201.11 0L205.32 0L205.32 16.48L207.23 16.80L207.23 18.28L201.11 18.28L201.11 16.80L203.02 16.48L203.02 1.82ZM210.57 1.82L208.66 1.49L208.66 0L212.88 0L212.88 16.48L214.79 16.80L214.79 18.28L208.66 18.28L208.66 16.80L210.57 16.48L210.57 1.82ZM216.54 18.28L216.54 16.80L218.45 16.48L218.45 7.42L216.54 7.09L216.54 5.60L220.76 5.60L220.76 16.48L222.67 16.80L222.67 18.28L216.54 18.28ZM220.76 0L220.76 2.36L218.45 2.36L218.45 0L220.76 0ZM224.09 18.28L224.09 16.80L226.00 16.48L226.00 7.42L224.09 7.09L224.09 5.60L228.06 5.60L228.22 7.49Q228.86 6.48 229.81 5.92Q230.77 5.37 231.98 5.37L231.98 5.37Q234.04 5.37 235.16 6.57Q236.29 7.77 236.29 10.28L236.29 10.28L236.29 16.48L238.20 16.80L238.20 18.28L232.07 18.28L232.07 16.80L233.98 16.48L233.98 10.32Q233.98 8.65 233.31 7.95Q232.65 7.24 231.29 7.24L231.29 7.24Q230.30 7.24 229.53 7.72Q228.76 8.20 228.30 9.04L228.30 9.04L228.30 16.48L230.21 16.80L230.21 18.28L224.09 18.28ZM239.77 12.42L239.77 12.18Q239.77 9.12 241.10 7.24Q242.44 5.37 244.79 5.37L244.79 5.37Q245.99 5.37 246.89 5.84Q247.79 6.30 248.40 7.20L248.40 7.20L248.61 5.60L250.56 5.60L250.56 18.12Q250.56 20.58 249.19 21.99Q247.82 23.40 245.29 23.40L245.29 23.40Q244.37 23.40 243.30 23.15Q242.24 22.90 241.43 22.46L241.43 22.46L242.03 20.67Q242.67 21.01 243.55 21.23Q244.43 21.46 245.26 21.46L245.26 21.46Q246.81 21.46 247.53 20.59Q248.25 19.72 248.25 18.12L248.25 18.12L248.25 16.91Q247.63 17.71 246.76 18.12Q245.89 18.53 244.77 18.53L244.77 18.53Q242.44 18.53 241.10 16.84Q239.77 15.15 239.77 12.42L239.77 12.42ZM242.07 12.18L242.07 12.42Q242.07 14.33 242.88 15.49Q243.69 16.65 245.34 16.65L245.34 16.65Q246.39 16.65 247.09 16.18Q247.79 15.70 248.25 14.84L248.25 14.84L248.25 9Q247.80 8.19 247.09 7.72Q246.38 7.24 245.37 7.24L245.37 7.24Q243.71 7.24 242.89 8.63Q242.07 10.01 242.07 12.18L242.07 12.18ZM272.32 3.42L272.32 6.46L270.69 6.46L270.26 4.04Q269.70 3.49 268.88 3.14Q268.05 2.79 266.92 2.79L266.92 2.79Q264.26 2.79 262.83 4.72Q261.40 6.64 261.40 9.61L261.40 9.61L261.40 9.88Q261.40 12.84 262.80 14.78Q264.20 16.72 266.68 16.72L266.68 16.72Q267.84 16.72 268.79 16.36Q269.74 16.00 270.26 15.47L270.26 15.47L270.69 13.05L272.32 13.05L272.32 16.09Q271.58 17.04 270.11 17.78Q268.63 18.53 266.68 18.53L266.68 18.53Q263.36 18.53 261.22 16.07Q259.09 13.61 259.09 9.88L259.09 9.88L259.09 9.63Q259.09 5.88 261.19 3.43Q263.29 0.97 266.68 0.97L266.68 0.97Q268.63 0.97 270.11 1.73Q271.58 2.48 272.32 3.42L272.32 3.42ZM274.46 18.28L274.46 16.80L276.38 16.48L276.38 1.82L274.46 1.49L274.46 0L278.68 0L278.68 7.29Q279.34 6.38 280.29 5.87Q281.24 5.37 282.40 5.37L282.40 5.37Q284.44 5.37 285.56 6.59Q286.69 7.80 286.69 10.34L286.69 10.34L286.69 16.48L288.60 16.80L288.60 18.28L282.47 18.28L282.47 16.80L284.38 16.48L284.38 10.31Q284.38 8.74 283.71 7.99Q283.03 7.24 281.70 7.24L281.70 7.24Q280.75 7.24 279.97 7.69Q279.19 8.14 278.68 8.92L278.68 8.92L278.68 16.48L280.59 16.80L280.59 18.28L274.46 18.28ZM301.57 18.28L298.55 18.28Q298.44 17.77 298.38 17.36Q298.32 16.95 298.30 16.54L298.30 16.54Q297.63 17.39 296.63 17.96Q295.63 18.53 294.49 18.53L294.49 18.53Q292.51 18.53 291.48 17.56Q290.45 16.59 290.45 14.84L290.45 14.84Q290.45 13.03 291.91 12.05Q293.37 11.07 295.91 11.07L295.91 11.07L298.29 11.07L298.29 9.60Q298.29 8.48 297.59 7.83Q296.88 7.18 295.63 7.18L295.63 7.18Q294.76 7.18 294.10 7.41Q293.44 7.63 293.03 8.02L293.03 8.02L292.78 9.35L291 9.35L291 6.89Q291.87 6.20 293.10 5.78Q294.33 5.37 295.77 5.37L295.77 5.37Q297.93 5.37 299.26 6.47Q300.60 7.57 300.60 9.62L300.60 9.62L300.60 15.73Q300.60 15.97 300.60 16.21Q300.61 16.44 300.63 16.68L300.63 16.68L301.57 16.80L301.57 18.28ZM294.83 16.59L294.83 16.59Q295.98 16.59 296.93 16.04Q297.88 15.49 298.29 14.72L298.29 14.72L298.29 12.63L295.83 12.63Q294.41 12.63 293.58 13.29Q292.76 13.95 292.76 14.88L292.76 14.88Q292.76 15.71 293.27 16.15Q293.79 16.59 294.83 16.59ZM303.04 18.28L303.04 16.80L304.95 16.48L304.95 7.42L303.04 7.09L303.04 5.60L307.02 5.60L307.17 7.25Q307.78 6.35 308.74 5.86Q309.70 5.37 310.97 5.37L310.97 5.37Q312.23 5.37 313.14 5.95Q314.05 6.54 314.51 7.71L314.51 7.71Q315.11 6.63 316.09 6Q317.07 5.37 318.39 5.37L318.39 5.37Q320.33 5.37 321.46 6.70Q322.58 8.03 322.58 10.70L322.58 10.70L322.58 16.48L324.49 16.80L324.49 18.28L318.35 18.28L318.35 16.80L320.26 16.48L320.26 10.68Q320.26 8.80 319.62 8.02Q318.97 7.24 317.71 7.24L317.71 7.24Q316.50 7.24 315.77 8.09Q315.04 8.94 314.92 10.23L314.92 10.23L314.92 16.48L316.83 16.80L316.83 18.28L310.70 18.28L310.70 16.80L312.61 16.48L312.61 10.68Q312.61 8.89 311.95 8.07Q311.29 7.24 310.03 7.24L310.03 7.24Q308.98 7.24 308.30 7.68Q307.62 8.11 307.25 8.89L307.25 8.89L307.25 16.48L309.16 16.80L309.16 18.28L303.04 18.28ZM337.77 12.18L337.77 12.42Q337.77 15.16 336.45 16.85Q335.13 18.53 332.82 18.53L332.82 18.53Q331.58 18.53 330.67 18.05Q329.75 17.58 329.14 16.65L329.14 16.65L328.93 18.28L326.94 18.28L326.94 1.82L325.03 1.49L325.03 0L329.25 0L329.25 7.10Q329.85 6.26 330.73 5.81Q331.62 5.37 332.80 5.37L332.80 5.37Q335.14 5.37 336.46 7.24Q337.77 9.12 337.77 12.18L337.77 12.18ZM335.45 12.42L335.45 12.18Q335.45 9.98 334.65 8.61Q333.86 7.24 332.21 7.24L332.21 7.24Q331.15 7.24 330.42 7.76Q329.68 8.27 329.25 9.14L329.25 9.14L329.25 14.74Q329.68 15.62 330.43 16.14Q331.17 16.65 332.24 16.65L332.24 16.65Q333.87 16.65 334.66 15.49Q335.45 14.33 335.45 12.42L335.45 12.42ZM345.86 18.53L345.86 18.53Q343.21 18.53 341.64 16.76Q340.08 15 340.08 12.19L340.08 12.19L340.08 11.67Q340.08 8.96 341.69 7.17Q343.30 5.37 345.50 5.37L345.50 5.37Q348.06 5.37 349.38 6.91Q350.70 8.46 350.70 11.04L350.70 11.04L350.70 12.48L342.47 12.48L342.43 12.54Q342.47 14.37 343.36 15.54Q344.25 16.72 345.86 16.72L345.86 16.72Q347.03 16.72 347.91 16.39Q348.80 16.05 349.44 15.47L349.44 15.47L350.34 16.97Q349.66 17.63 348.54 18.08Q347.43 18.53 345.86 18.53ZM345.50 7.18L345.50 7.18Q344.34 7.18 343.52 8.16Q342.70 9.14 342.52 10.62L342.52 10.62L342.54 10.68L348.39 10.68L348.39 10.37Q348.39 9.01 347.66 8.10Q346.93 7.18 345.50 7.18ZM354.88 7.42L352.97 7.09L352.97 5.60L356.94 5.60L357.16 7.44Q357.70 6.47 358.49 5.92Q359.29 5.37 360.30 5.37L360.30 5.37Q360.57 5.37 360.86 5.41Q361.15 5.45 361.30 5.50L361.30 5.50L361.00 7.64L359.68 7.57Q358.77 7.57 358.15 8.00Q357.53 8.43 357.19 9.20L357.19 9.20L357.19 16.48L359.10 16.80L359.10 18.28L352.97 18.28L352.97 16.80L354.88 16.48L354.88 7.42Z" transform="translate(0, 52)"></path></svg>