<svg version="1.1" xmlns="http://www.w3.org/2000/svg" xmlns:xlink="http://www.w3.org/1999/xlink" width="513" height="513" viewBox="0,0,256,256"><g fill="none" fill-rule="evenodd" stroke="none" stroke-width="1" stroke-linecap="butt" stroke-linejoin="miter" stroke-miterlimit="10" stroke-dasharray="" stroke-dashoffset="0" font-family="none" font-weight="none" font-size="none" text-anchor="none" style="mix-blend-mode: normal"><g transform="translate(-0.24838,-0.29964) scale(0.49903,0.49903)"><path d="" fill="#94d82d"></path><path d="M224.564,2.625c-45.694,5.852 -91.682,25.524 -128.564,54.995c-10.902,8.711 -29.669,27.478 -38.38,38.38c-29.921,37.445 -49.33,83.241 -55.084,129.97c-1.965,15.95 -1.975,44.786 -0.024,61.471c5.419,46.326 25.147,93.064 55.108,130.559c8.753,10.954 27.53,29.718 38.38,38.353c34.016,27.071 74.445,45.551 116,53.021c30.862,5.548 69.33,4.798 99.934,-1.948c36.979,-8.151 75.714,-26.793 106.066,-51.046c10.902,-8.711 29.669,-27.478 38.38,-38.38c29.961,-37.495 49.689,-84.233 55.108,-130.559c1.936,-16.552 1.936,-44.33 0,-60.882c-5.432,-46.433 -25.078,-92.977 -55.108,-130.559c-8.711,-10.902 -27.478,-29.669 -38.38,-38.38c-37.411,-29.893 -83.284,-49.336 -129.97,-55.084c-15.469,-1.905 -48.256,-1.859 -63.466,0.089M379.684,144.389c-2.099,0.782 -4.776,2.251 -5.948,3.266c-1.173,1.015 -35.8,33.232 -76.949,71.595c-41.15,38.363 -75.179,69.75 -75.621,69.75c-0.441,0 -14.947,-14.868 -32.234,-33.04c-36.263,-38.118 -36.75,-38.488 -50.432,-38.42c-6.338,0.031 -9.013,0.533 -12.876,2.419c-6.63,3.236 -15.592,11.749 -19.172,18.212c-2.585,4.666 -2.95,6.324 -2.938,13.329c0.01,5.726 0.515,8.925 1.778,11.255c0.971,1.791 21.013,23.166 44.538,47.5c23.526,24.335 44.877,46.53 47.448,49.323c2.57,2.793 7.047,6.39 9.948,7.993c4.436,2.452 6.386,2.912 12.274,2.891c12.432,-0.045 17.43,-3.791 40.642,-30.458c16.242,-18.661 68.144,-76.616 117.587,-131.302l33.271,-36.799v-5.501c0,-6.176 -1.725,-10.307 -6.362,-15.24c-6.412,-6.819 -17.063,-9.71 -24.954,-6.773" fill="#fcc419"></path></g></g></svg>